<?xml version="1.0"?>
<svg xmlns="http://www.w3.org/2000/svg" xmlns:xlink="http://www.w3.org/1999/xlink" xmlns:svgjs="http://svgjs.com/svgjs" version="1.1" width="512" height="512" x="0" y="0" viewBox="0 0 512 512" style="enable-background:new 0 0 512 512" xml:space="preserve" class=""><g>
<g xmlns="http://www.w3.org/2000/svg">
	<g>
		<g>
			<path d="M256,7.384L0,109.784v394.832h96v-256h320v256h96V109.784L256,7.384z M480,472.616h-32v-256H64v256H32V131.448l224-89.6     l224,89.6V472.616z" fill="#ffffff" data-original="#000000" style="" class=""/>
			<path d="M256,376.616h-96v128h224v-224H256V376.616z M256,472.616h-64v-64h64V472.616z M288,312.616h64v64h-64V312.616z      M288,408.616h64v64h-64V408.616z" fill="#ffffff" data-original="#000000" style="" class=""/>
			<rect x="144" y="136.616" width="32" height="32" fill="#ffffff" data-original="#000000" style="" class=""/>
			<rect x="208" y="136.616" width="96" height="32" fill="#ffffff" data-original="#000000" style="" class=""/>
			<rect x="336" y="136.616" width="32" height="32" fill="#ffffff" data-original="#000000" style="" class=""/>
		</g>
	</g>
</g>
<g xmlns="http://www.w3.org/2000/svg">
</g>
<g xmlns="http://www.w3.org/2000/svg">
</g>
<g xmlns="http://www.w3.org/2000/svg">
</g>
<g xmlns="http://www.w3.org/2000/svg">
</g>
<g xmlns="http://www.w3.org/2000/svg">
</g>
<g xmlns="http://www.w3.org/2000/svg">
</g>
<g xmlns="http://www.w3.org/2000/svg">
</g>
<g xmlns="http://www.w3.org/2000/svg">
</g>
<g xmlns="http://www.w3.org/2000/svg">
</g>
<g xmlns="http://www.w3.org/2000/svg">
</g>
<g xmlns="http://www.w3.org/2000/svg">
</g>
<g xmlns="http://www.w3.org/2000/svg">
</g>
<g xmlns="http://www.w3.org/2000/svg">
</g>
<g xmlns="http://www.w3.org/2000/svg">
</g>
<g xmlns="http://www.w3.org/2000/svg">
</g>
</g></svg>
